<svg xmlns="http://www.w3.org/2000/svg" viewBox="0 0 420 160" role="img" aria-labelledby="title">
  <title id="title">ground hills low sky silhouette</title>
  <path d="M0 112 C58 70 103 88 152 55 C204 20 248 86 297 58 C349 27 390 70 420 48 L420 160 L0 160 Z" fill="#6aa46f" opacity=".72"/>
  <path d="M0 132 C72 96 123 118 178 88 C230 60 282 116 333 92 C374 74 404 88 420 78 L420 160 L0 160 Z" fill="#3f7e6f" opacity=".65"/>
  <path d="M30 106 l18-34 18 34 Z M324 82 l26-48 26 48 Z" fill="#f8fdff" opacity=".66"/>
</svg>
