<svg xmlns="http://www.w3.org/2000/svg" viewBox="0 0 96 112" role="img" aria-labelledby="title">
  <title id="title">tower player celebrate</title>
  <ellipse cx="48" cy="100" rx="31" ry="8" fill="#17345f" opacity=".16"/>
  <path d="M27 46c0-16 10-28 21-28s21 12 21 28v22H27Z" fill="#57e389" stroke="#fff" stroke-width="5"/>
  <circle cx="48" cy="35" r="17" fill="#ffe4ba" stroke="#17345f" stroke-width="4"/>
  <path d="M29 32c7-18 31-20 38 0-13-5-26-5-38 0Z" fill="#35a7ff"/>
  <path d="M30 56 14 25M66 56l16-31" stroke="#3d7cff" stroke-width="9" stroke-linecap="round"/>
  <path d="M39 68v24M57 68v24" stroke="#264d8f" stroke-width="10" stroke-linecap="round"/>
  <path d="M13 17 7 9M83 17l6-8M48 12V3" stroke="#ffcf54" stroke-width="5" stroke-linecap="round"/>
</svg>
