<svg xmlns="http://www.w3.org/2000/svg" viewBox="0 0 512 512">
  <rect width="512" height="512" rx="112" fill="#07111f"/>
  <path d="M84 352c72-106 145-171 219-197 47-17 88-15 125-4-33 15-66 38-99 69 45-4 79 9 99 41-70-20-132-8-186 35-38 30-68 62-91 96H84z" fill="#d7f7ff"/>
  <path d="M122 365c69-72 133-111 193-117 43-4 78 9 105 36-51-12-95-2-133 30-27 23-48 48-64 75H122z" fill="#35d4ff"/>
  <circle cx="207" cy="216" r="31" fill="#f8fbff"/>
  <path d="M201 257l58 33 51-14 17 29-67 28-82-45 23-31z" fill="#ff375f"/>
  <path d="M180 248l-35 56-40 8-8-31 34-8 26-44 23 19z" fill="#f8fbff"/>
  <path d="M238 206l52 24 42-4 7 31-56 8-61-29 16-30z" fill="#f8fbff"/>
  <path d="M165 183h91v24h-91z" fill="#ffd43b"/>
  <path d="M185 183h14v24h-14zm28 0h14v24h-14zm28 0h14v24h-14z" fill="#101828"/>
</svg>
