<svg xmlns="http://www.w3.org/2000/svg" viewBox="0 0 190 150">
  <path d="M17 89C2 101 4 119 22 126c-5-14 5-22 20-30Z" fill="#35d4ff" opacity=".75"/>
  <path d="M25 96c-10 10-8 21 4 27 0-11 8-17 20-23Z" fill="#ff7a18" opacity=".9"/>
  <circle cx="54" cy="111" r="24" fill="none" stroke="#e8fbff" stroke-width="9"/>
  <circle cx="132" cy="111" r="24" fill="none" stroke="#e8fbff" stroke-width="9"/>
  <path d="M54 111 91 78 132 111H54Z" fill="none" stroke="#dff8ff" stroke-width="7"/>
  <path d="M91 78 111 55 140 58" fill="none" stroke="#35d4ff" stroke-width="7" stroke-linecap="round"/>
  <path d="M90 35c14-16 43-8 49 9l-9 18-44-5-8-11Z" fill="#f6fbff"/>
  <path d="M98 37h42l-7 13H94Z" fill="#07111f"/>
  <path d="M88 60c25-8 49 1 61 18l-17 22-58-10-12-18Z" fill="#ff375f"/>
  <path d="M78 66h62" stroke="#2ee88f" stroke-width="7"/>
  <path d="M78 79h60" stroke="#ffd43b" stroke-width="7"/>
  <path d="M79 92h48" stroke="#35d4ff" stroke-width="7"/>
  <path d="M69 70 43 92M128 80l31 15M94 94l-17 24M117 96l20 22" stroke="#f6fbff" stroke-width="9" stroke-linecap="round"/>
  <rect x="141" y="68" width="22" height="18" rx="4" fill="#2a2f35"/>
</svg>
